<svg width="64" height="27" viewBox="0 0 64 27" fill="none" xmlns="http://www.w3.org/2000/svg">
<g filter="url(#filter0_d_4_18)">
<path d="M1.15755 9.5V2.012H5.81355C6.07755 2.012 6.32555 2.072 6.55755 2.192C6.78955 2.304 6.99355 2.464 7.16955 2.672C7.34555 2.872 7.48555 3.112 7.58955 3.392C7.69355 3.672 7.74555 3.972 7.74555 4.292C7.74555 4.58 7.69355 4.856 7.58955 5.12C7.49355 5.384 7.35755 5.62 7.18155 5.828C7.00555 6.028 6.80155 6.188 6.56955 6.308C6.34555 6.428 6.10155 6.488 5.83755 6.488H4.46955V5.42H5.69355C5.84555 5.42 5.97755 5.384 6.08955 5.312C6.20155 5.24 6.29355 5.148 6.36555 5.036C6.43755 4.924 6.48955 4.8 6.52155 4.664C6.55355 4.528 6.56955 4.4 6.56955 4.28C6.56955 4.152 6.54555 4.02 6.49755 3.884C6.45755 3.74 6.39755 3.608 6.31755 3.488C6.24555 3.368 6.15355 3.272 6.04155 3.2C5.92955 3.12 5.80155 3.08 5.65755 3.08H2.28555V9.5H1.15755ZM14.4526 9.5L12.3766 5.42H13.7326C13.8846 5.42 14.0166 5.384 14.1286 5.312C14.2406 5.24 14.3326 5.148 14.4046 5.036C14.4766 4.924 14.5286 4.8 14.5606 4.664C14.5926 4.528 14.6086 4.4 14.6086 4.28C14.6086 4.152 14.5846 4.02 14.5366 3.884C14.4966 3.74 14.4366 3.608 14.3566 3.488C14.2846 3.368 14.1926 3.272 14.0806 3.2C13.9686 3.12 13.8406 3.08 13.6966 3.08H10.3246V9.5H9.19661V2.012H13.8526C14.1166 2.012 14.3646 2.072 14.5966 2.192C14.8286 2.304 15.0326 2.464 15.2086 2.672C15.3846 2.872 15.5246 3.112 15.6286 3.392C15.7326 3.672 15.7846 3.972 15.7846 4.292C15.7846 4.556 15.7406 4.812 15.6526 5.06C15.5726 5.3 15.4566 5.52 15.3046 5.72C15.1606 5.92 14.9886 6.088 14.7886 6.224C14.5886 6.352 14.3726 6.436 14.1406 6.476L15.6766 9.5H14.4526ZM18.0436 5.768C18.0436 6.128 18.1156 6.468 18.2596 6.788C18.4036 7.108 18.5956 7.388 18.8356 7.628C19.0836 7.868 19.3676 8.06 19.6876 8.204C20.0156 8.348 20.3636 8.42 20.7316 8.42C21.0916 8.42 21.4356 8.348 21.7636 8.204C22.0916 8.06 22.3756 7.868 22.6156 7.628C22.8636 7.388 23.0596 7.108 23.2036 6.788C23.3556 6.468 23.4316 6.128 23.4316 5.768C23.4316 5.408 23.3596 5.068 23.2156 4.748C23.0716 4.428 22.8756 4.144 22.6276 3.896C22.3796 3.648 22.0916 3.452 21.7636 3.308C21.4436 3.164 21.1036 3.092 20.7436 3.092C20.3756 3.092 20.0276 3.164 19.6996 3.308C19.3716 3.452 19.0836 3.648 18.8356 3.896C18.5956 4.144 18.4036 4.428 18.2596 4.748C18.1156 5.068 18.0436 5.408 18.0436 5.768ZM16.9276 5.756C16.9276 5.236 17.0236 4.748 17.2156 4.292C17.4156 3.828 17.6836 3.428 18.0196 3.092C18.3636 2.748 18.7676 2.476 19.2316 2.276C19.6956 2.076 20.1956 1.976 20.7316 1.976C21.2596 1.976 21.7556 2.076 22.2196 2.276C22.6836 2.476 23.0836 2.748 23.4196 3.092C23.7636 3.428 24.0356 3.828 24.2356 4.292C24.4356 4.748 24.5356 5.236 24.5356 5.756C24.5356 6.276 24.4356 6.768 24.2356 7.232C24.0356 7.688 23.7636 8.088 23.4196 8.432C23.0836 8.768 22.6836 9.036 22.2196 9.236C21.7556 9.436 21.2596 9.536 20.7316 9.536C20.1956 9.536 19.6956 9.436 19.2316 9.236C18.7676 9.036 18.3636 8.768 18.0196 8.432C17.6836 8.088 17.4156 7.688 17.2156 7.232C17.0236 6.768 16.9276 6.276 16.9276 5.756ZM26.951 5.96C26.999 6.304 27.103 6.628 27.263 6.932C27.423 7.228 27.623 7.488 27.863 7.712C28.103 7.928 28.375 8.1 28.679 8.228C28.983 8.356 29.303 8.42 29.639 8.42C29.975 8.42 30.295 8.36 30.599 8.24C30.903 8.12 31.171 7.956 31.403 7.748C31.643 7.54 31.839 7.296 31.991 7.016C32.151 6.736 32.255 6.436 32.303 6.116V2.012H33.443V5.78C33.443 6.3 33.343 6.788 33.143 7.244C32.951 7.7 32.683 8.1 32.339 8.444C31.995 8.78 31.591 9.048 31.127 9.248C30.663 9.44 30.167 9.536 29.639 9.536C29.143 9.536 28.675 9.444 28.235 9.26C27.795 9.076 27.403 8.824 27.059 8.504C26.723 8.184 26.443 7.808 26.219 7.376C26.003 6.936 25.867 6.464 25.811 5.96H26.951ZM34.9893 9.5V2.012H40.6893V3.08H36.1173V8.432H40.6893V9.5H34.9893ZM40.6053 5.42V6.488H36.8853V5.42H40.6053ZM42.0758 5.756C42.0758 5.236 42.1718 4.748 42.3638 4.292C42.5638 3.828 42.8358 3.428 43.1798 3.092C43.5238 2.748 43.9278 2.476 44.3918 2.276C44.8558 2.076 45.3518 1.976 45.8798 1.976C46.2638 1.976 46.6318 2.036 46.9838 2.156C47.3358 2.268 47.6598 2.428 47.9558 2.636C48.2598 2.844 48.5318 3.092 48.7718 3.38C49.0198 3.668 49.2238 3.984 49.3838 4.328L48.4598 4.94C48.3398 4.676 48.1878 4.432 48.0038 4.208C47.8278 3.976 47.6278 3.78 47.4038 3.62C47.1798 3.452 46.9398 3.324 46.6838 3.236C46.4278 3.14 46.1638 3.092 45.8918 3.092C45.5238 3.092 45.1758 3.164 44.8478 3.308C44.5198 3.452 44.2318 3.648 43.9838 3.896C43.7438 4.144 43.5518 4.428 43.4078 4.748C43.2638 5.068 43.1918 5.408 43.1918 5.768C43.1918 6.128 43.2638 6.468 43.4078 6.788C43.5518 7.108 43.7438 7.388 43.9838 7.628C44.2318 7.868 44.5158 8.06 44.8358 8.204C45.1638 8.348 45.5118 8.42 45.8798 8.42C46.1278 8.42 46.3718 8.384 46.6118 8.312C46.8518 8.232 47.0798 8.124 47.2958 7.988C47.5118 7.844 47.7118 7.676 47.8958 7.484C48.0798 7.284 48.2358 7.068 48.3638 6.836L49.1798 7.652C48.8198 8.22 48.3558 8.676 47.7878 9.02C47.2198 9.364 46.5838 9.536 45.8798 9.536C45.3518 9.536 44.8558 9.436 44.3918 9.236C43.9278 9.036 43.5238 8.768 43.1798 8.432C42.8358 8.088 42.5638 7.688 42.3638 7.232C42.1718 6.768 42.0758 6.276 42.0758 5.756ZM50.1294 2.012H56.6694V3.08H53.9574V9.5H52.8174V3.08H50.1294V2.012ZM56.9323 8.732C56.9323 8.5 57.0043 8.312 57.1483 8.168C57.2923 8.016 57.4803 7.94 57.7123 7.94C57.9443 7.94 58.1363 8.016 58.2883 8.168C58.4403 8.312 58.5163 8.5 58.5163 8.732C58.5163 8.964 58.4403 9.156 58.2883 9.308C58.1363 9.452 57.9443 9.524 57.7123 9.524C57.4803 9.524 57.2923 9.452 57.1483 9.308C57.0043 9.156 56.9323 8.964 56.9323 8.732ZM56.9323 4.676C56.9323 4.444 57.0043 4.256 57.1483 4.112C57.2923 3.96 57.4803 3.884 57.7123 3.884C57.9443 3.884 58.1363 3.96 58.2883 4.112C58.4403 4.256 58.5163 4.444 58.5163 4.676C58.5163 4.908 58.4403 5.1 58.2883 5.252C58.1363 5.396 57.9443 5.468 57.7123 5.468C57.4803 5.468 57.2923 5.396 57.1483 5.252C57.0043 5.1 56.9323 4.908 56.9323 4.676ZM6.36625 21.5V14.012H7.49425V20.432H12.0663V21.5H6.36625ZM13.5616 21.5V14.012H19.2616V15.08H14.6896V20.432H19.2616V21.5H13.5616ZM19.1776 17.42V18.488H15.4576V17.42H19.1776ZM29.4488 17.756C29.4488 17.236 29.5448 16.748 29.7368 16.292C29.9368 15.828 30.2088 15.428 30.5528 15.092C30.8968 14.748 31.3008 14.476 31.7648 14.276C32.2288 14.076 32.7248 13.976 33.2528 13.976C33.6368 13.976 34.0048 14.036 34.3568 14.156C34.7088 14.268 35.0328 14.428 35.3288 14.636C35.6328 14.844 35.9048 15.092 36.1448 15.38C36.3928 15.668 36.5968 15.984 36.7568 16.328L35.8328 16.94C35.7128 16.676 35.5608 16.432 35.3768 16.208C35.2008 15.976 35.0008 15.78 34.7768 15.62C34.5528 15.452 34.3128 15.324 34.0568 15.236C33.8008 15.14 33.5368 15.092 33.2648 15.092C32.8968 15.092 32.5488 15.164 32.2208 15.308C31.8928 15.452 31.6048 15.648 31.3568 15.896C31.1168 16.144 30.9248 16.428 30.7808 16.748C30.6368 17.068 30.5648 17.408 30.5648 17.768C30.5648 18.128 30.6368 18.468 30.7808 18.788C30.9248 19.108 31.1168 19.388 31.3568 19.628C31.6048 19.868 31.8888 20.06 32.2088 20.204C32.5368 20.348 32.8848 20.42 33.2528 20.42C33.5008 20.42 33.7448 20.384 33.9848 20.312C34.2248 20.232 34.4528 20.124 34.6688 19.988C34.8848 19.844 35.0848 19.676 35.2688 19.484C35.4528 19.284 35.6088 19.068 35.7368 18.836L36.5528 19.652C36.1928 20.22 35.7288 20.676 35.1608 21.02C34.5928 21.364 33.9568 21.536 33.2528 21.536C32.7248 21.536 32.2288 21.436 31.7648 21.236C31.3008 21.036 30.8968 20.768 30.5528 20.432C30.2088 20.088 29.9368 19.688 29.7368 19.232C29.5448 18.768 29.4488 18.276 29.4488 17.756ZM36.4568 17.42V18.488H32.7008V17.42H36.4568ZM38.1712 14.012H39.3112V18.116C39.3512 18.436 39.4512 18.736 39.6112 19.016C39.7712 19.296 39.9712 19.54 40.2112 19.748C40.4512 19.956 40.7232 20.12 41.0272 20.24C41.3312 20.36 41.6512 20.42 41.9872 20.42C42.3232 20.42 42.6432 20.36 42.9472 20.24C43.2512 20.12 43.5192 19.956 43.7512 19.748C43.9912 19.54 44.1872 19.296 44.3392 19.016C44.4992 18.736 44.5992 18.436 44.6392 18.116V14.012H45.7912V17.78C45.7912 18.3 45.6912 18.788 45.4912 19.244C45.2912 19.7 45.0192 20.1 44.6752 20.444C44.3392 20.78 43.9392 21.048 43.4752 21.248C43.0112 21.44 42.5152 21.536 41.9872 21.536C41.4592 21.536 40.9632 21.44 40.4992 21.248C40.0352 21.048 39.6312 20.78 39.2872 20.444C38.9432 20.1 38.6712 19.7 38.4712 19.244C38.2712 18.788 38.1712 18.3 38.1712 17.78V14.012ZM47.3233 21.5V14.012H53.0233V15.08H48.4513V20.432H53.0233V21.5H47.3233ZM52.9393 17.42V18.488H49.2193V17.42H52.9393Z" fill="#E4BF62"/>
<path d="M28.484 21.5H27.176L24.404 15.908L22.184 20.432H25.4L26.108 21.5H20.384L24.404 13.4L28.484 21.5Z" fill="#1FE5F1"/>
</g>
<defs>
<filter id="filter0_d_4_18" x="0.157532" y="0.976013" width="63.3588" height="25.56" filterUnits="userSpaceOnUse" color-interpolation-filters="sRGB">
<feFlood flood-opacity="0" result="BackgroundImageFix"/>
<feColorMatrix in="SourceAlpha" type="matrix" values="0 0 0 0 0 0 0 0 0 0 0 0 0 0 0 0 0 0 127 0" result="hardAlpha"/>
<feOffset dx="2" dy="2"/>
<feGaussianBlur stdDeviation="1.5"/>
<feComposite in2="hardAlpha" operator="out"/>
<feColorMatrix type="matrix" values="0 0 0 0 0 0 0 0 0 0 0 0 0 0 0 0 0 0 0.3 0"/>
<feBlend mode="normal" in2="BackgroundImageFix" result="effect1_dropShadow_4_18"/>
<feBlend mode="normal" in="SourceGraphic" in2="effect1_dropShadow_4_18" result="shape"/>
</filter>
</defs>
</svg>
