<svg width="24" height="31" viewBox="0 0 24 31" fill="none" xmlns="http://www.w3.org/2000/svg">
<g filter="url(#filter0_d_4_137)">
<path d="M6.74805 16.4414V15.1816C6.74805 14.5762 6.82129 14.0293 6.96777 13.541C7.12402 13.0527 7.39746 12.5889 7.78809 12.1494C8.17871 11.71 8.7207 11.2705 9.41406 10.8311C10.0781 10.4111 10.5664 10.0498 10.8789 9.74707C11.1914 9.43457 11.3965 9.15137 11.4941 8.89746C11.5918 8.63379 11.6406 8.37012 11.6406 8.10645C11.6406 7.69629 11.4551 7.37402 11.084 7.13965C10.7129 6.89551 10.2295 6.77344 9.63379 6.77344C8.8916 6.77344 8.08594 6.90527 7.2168 7.16895C6.35742 7.43262 5.43945 7.82324 4.46289 8.34082L2.42676 4.35645C3.53027 3.72168 4.70703 3.21875 5.95703 2.84766C7.20703 2.4668 8.56934 2.27637 10.0439 2.27637C12.2607 2.27637 13.9795 2.76953 15.2002 3.75586C16.4209 4.73242 17.0312 6.02148 17.0312 7.62305C17.0312 8.38477 16.9141 9.08301 16.6797 9.71777C16.4453 10.3525 16.0742 10.9482 15.5664 11.5049C15.0586 12.0615 14.3896 12.6084 13.5596 13.1455C12.9736 13.5166 12.5098 13.834 12.168 14.0977C11.8359 14.3613 11.5967 14.6152 11.4502 14.8594C11.3135 15.1035 11.2451 15.3818 11.2451 15.6943V16.4414H6.74805ZM6.11816 21.5684C6.11816 20.5332 6.41602 19.8057 7.01172 19.3857C7.61719 18.9658 8.34961 18.7559 9.20898 18.7559C10.0293 18.7559 10.7373 18.9658 11.333 19.3857C11.9385 19.8057 12.2412 20.5332 12.2412 21.5684C12.2412 22.5547 11.9385 23.2676 11.333 23.707C10.7373 24.1465 10.0293 24.3662 9.20898 24.3662C8.34961 24.3662 7.61719 24.1465 7.01172 23.707C6.41602 23.2676 6.11816 22.5547 6.11816 21.5684Z" fill="#1FE5F1" fill-opacity="0.8" shape-rendering="crispEdges"/>
</g>
<defs>
<filter id="filter0_d_4_137" x="0.426758" y="0.276367" width="22.6045" height="30.0898" filterUnits="userSpaceOnUse" color-interpolation-filters="sRGB">
<feFlood flood-opacity="0" result="BackgroundImageFix"/>
<feColorMatrix in="SourceAlpha" type="matrix" values="0 0 0 0 0 0 0 0 0 0 0 0 0 0 0 0 0 0 127 0" result="hardAlpha"/>
<feOffset dx="2" dy="2"/>
<feGaussianBlur stdDeviation="2"/>
<feComposite in2="hardAlpha" operator="out"/>
<feColorMatrix type="matrix" values="0 0 0 0 0 0 0 0 0 0 0 0 0 0 0 0 0 0 0.42 0"/>
<feBlend mode="normal" in2="BackgroundImageFix" result="effect1_dropShadow_4_137"/>
<feBlend mode="normal" in="SourceGraphic" in2="effect1_dropShadow_4_137" result="shape"/>
</filter>
</defs>
</svg>
